<svg xmlns="http://www.w3.org/2000/svg" width="134" height="56" viewBox="0 0 134 56"><defs><style>.a{fill:#38a1c9;}.b{fill:#146433;}.c{fill:#a5bed0;}.d{fill:#1d3b7a;}.e{fill:#123162;}.f{fill:#f64a4b;}.g{fill:#1982a5;}.h{fill:#f3f535;}</style></defs><g transform="translate(-4036.995 459)"><path class="a" d="M88.7,1137.718a8.306,8.306,0,0,1-.84-.473,1.883,1.883,0,0,1-.821-1.585c-.007-2.775-.013-5.55,0-8.325a1.986,1.986,0,0,1,1.722-1.96q2.869-.453,5.746-.861a1.994,1.994,0,0,1,1.568.4,1.948,1.948,0,0,1,.741,1.424c.125,2.411.1,4.825.01,7.238a1.924,1.924,0,0,1-1.387,1.8q-3.008,1.169-6.014,2.344Z" transform="translate(3959.011 -1540.718)"/><path class="b" d="M.081,853.735c-.005-.9,1.1-1.514,2.175-1.611.982-.088,1.956-.255,2.936-.37a2.036,2.036,0,0,1,1.689.422,1.988,1.988,0,0,1,.729,1.565q.066,4.189,0,8.379a1.971,1.971,0,0,1-.682,1.536,2.019,2.019,0,0,1-1.629.469c-1.171-.107-2.336-.287-3.5-.449-.857-.119-1.75-.927-1.72-1.4Z" transform="translate(4036.917 -1296.614)"/><path class="c" d="M.081,983.656a2.071,2.071,0,0,1,1.741-1.4,5.369,5.369,0,0,1,1.689.185c.737.093,1.463.239,2.191.377a2.131,2.131,0,0,1,1.466.745,2.084,2.084,0,0,1,.485,1.558c.022,2.551.014,5.1,0,7.654a2.12,2.12,0,0,1-.965,1.938,2.172,2.172,0,0,1-2.182.1c-.97-.487-1.985-.887-2.995-1.29C.85,993.259.1,992.737.078,992.192Z" transform="translate(4036.917 -1413.398)"/><path class="d" d="M6.014,717.256A2.344,2.344,0,0,1,7.639,719.8c-.052,2.412-.015,4.827-.015,7.24a2.129,2.129,0,0,1-2.1,2.471c-.852.145-1.706.277-2.557.428-1.549.275-2.243-.077-2.879-1.476v-8.229a1.936,1.936,0,0,1,1.367-1.567c.919-.382,1.83-.785,2.745-1.183.254-.111.525-.141.78-.233Z" transform="translate(4036.914 -1176.256)"/><path class="e" d="M445.643,808.858a2.36,2.36,0,0,0-.222.185c-2.332,2.72-5.277,3.04-8.494,2.03a7.3,7.3,0,0,1-4.636-4.217,11.71,11.71,0,0,1,.186-10.186,8,8,0,0,1,7.407-4.541,10.306,10.306,0,0,1,5.743,1.275,5.126,5.126,0,0,1,2.83,5.092c-.021.29-.1.381-.386.377-1.11-.013-2.219-.009-3.328,0-.228,0-.346-.038-.34-.306.017-.747.1-1.5-.585-2.082a4.717,4.717,0,0,0-2.936-1.141,4.78,4.78,0,0,0-5.032,3.276,8.9,8.9,0,0,0,.2,7.046A4.692,4.692,0,0,0,441,808.234a4.536,4.536,0,0,0,4.085-3.607c.074-.3.006-.35-.275-.347-1.179.011-2.358-.009-3.536.013-.349.007-.435-.1-.425-.431.023-.787.016-1.577,0-2.365,0-.244.067-.321.32-.32,1.751.01,3.5-.015,5.252.013a2.241,2.241,0,0,1,2.22,2.216c.044,2.45.013,4.9.019,7.35,0,.215-.056.306-.29.3q-1.222-.016-2.444,0c-.232,0-.3-.077-.291-.3C445.651,810.162,445.643,809.563,445.643,808.858Z" transform="translate(3651.459 -1243.412)"/><path class="e" d="M648.075,815.578c-2.1,0-4.2-.009-6.294.009-.364,0-.469-.087-.457-.45.029-.8.031-1.612,0-2.416-.015-.376.112-.471.469-.44a8.667,8.667,0,0,0,1.041,0c.565-.019.825-.274.826-.825q0-5.039,0-10.078c0-.629-.286-.907-.915-.922h-.052c-.431-.01-1,.142-1.255-.073-.3-.251-.082-.834-.1-1.271-.017-.53.007-1.06-.009-1.594-.007-.249.04-.36.335-.36,4.161.009,8.322-.006,12.482.014a2.965,2.965,0,0,1,2.707,2.768c0,.805-.012,1.612.007,2.416.007.293-.083.375-.376.369-.8-.019-1.6-.017-2.393,0-.283.006-.4-.06-.383-.363a10.286,10.286,0,0,0,0-1.079.759.759,0,0,0-.2-.569.777.777,0,0,0-.557-.246c-1.734-.019-3.467-.007-5.2-.014-.2,0-.268.066-.268.265.007,1.1.012,2.194,0,3.291,0,.32.2.252.38.252,1.578,0,3.155.011,4.733-.007.35,0,.483.066.469.444-.029.822-.025,1.645,0,2.467.009.326-.1.4-.413.4-1.578-.015-3.155,0-4.733-.014-.321,0-.446.055-.44.411.023,1.319.017,2.64,0,3.959,0,.283.067.377.369.375,1.768-.014,3.537,0,5.3-.009a.887.887,0,0,0,.739-.245.866.866,0,0,0,.253-.729c.005-.409-.14-.952.067-1.192.246-.283.812-.074,1.238-.09.5-.018,1,.007,1.508-.009.242-.007.335.058.328.313-.015.942.015,1.886-.015,2.828a3.042,3.042,0,0,1-2.194,2.306,2.68,2.68,0,0,1-.818.116C652.2,815.576,650.138,815.578,648.075,815.578Z" transform="translate(3463.64 -1247.939)"/><path class="e" d="M1117,815.579c-2.1,0-4.2-.009-6.294.009-.365,0-.469-.091-.455-.452.029-.8.031-1.612,0-2.416-.015-.378.115-.469.469-.439a8.786,8.786,0,0,0,1.039,0c.564-.019.824-.276.824-.826q0-5.039,0-10.078c0-.629-.286-.905-.916-.922h-.052c-.431-.011-1,.142-1.254-.074-.294-.252-.081-.834-.1-1.271-.017-.53.007-1.063-.009-1.594-.007-.251.043-.359.335-.358,4.161.009,8.321-.007,12.483.014a2.964,2.964,0,0,1,2.707,2.769c0,.806-.006,1.611,0,2.416,0,.236-.014.376-.322.368q-1.247-.032-2.5,0c-.3.007-.335-.122-.328-.365.015-.36.013-.72,0-1.079a.758.758,0,0,0-.2-.569.775.775,0,0,0-.558-.245c-1.734-.019-3.467-.007-5.2-.014-.206,0-.268.07-.264.265.007,1.1.012,2.194,0,3.29,0,.321.206.25.381.25,1.578,0,3.155.012,4.733-.007.352,0,.481.072.469.445-.029.822-.025,1.645,0,2.467.009.331-.1.4-.414.393-1.578-.015-3.155,0-4.733-.014-.323,0-.445.058-.439.413.024,1.319.017,2.639,0,3.959,0,.285.07.376.37.373,1.768-.014,3.536,0,5.3-.009a.886.886,0,0,0,.739-.246.865.865,0,0,0,.252-.73c.005-.409-.139-.952.067-1.192.247-.282.812-.074,1.239-.089.5-.019,1,.007,1.508-.009.244-.008.331.062.327.314-.015.942.015,1.886-.016,2.827a3.045,3.045,0,0,1-2.194,2.305,2.69,2.69,0,0,1-.818.115Q1120.1,815.575,1117,815.579Z" transform="translate(3044.388 -1247.94)"/><path class="e" d="M837.482,849.476c.52,0,1.041.021,1.56-.007.335-.019.441.1.394.408a1.389,1.389,0,0,0,0,.205c0,1.145.17,1.355,1.316,1.538a6.416,6.416,0,0,0,2.277.025,2.255,2.255,0,0,0,.943-.408.965.965,0,0,0-.186-1.762,12.056,12.056,0,0,0-2.645-.716,14.341,14.341,0,0,1-2.7-.709c-1.449-.616-2.514-1.528-2.529-3.228a4.154,4.154,0,0,1,2.118-3.911,10.08,10.08,0,0,1,7.165-.244,3.5,3.5,0,0,1,2.424,3.567c0,.922,0,.922-.949.922-.745,0-1.491-.009-2.237,0-.268.005-.431-.035-.388-.352.193-1.4-.725-1.956-2.067-2a4.395,4.395,0,0,0-1.642.183,1.1,1.1,0,0,0-.851,1.04c-.02.548.34.782.783.957a23.95,23.95,0,0,0,3.676.879,8.818,8.818,0,0,1,2.054.7,3.8,3.8,0,0,1,2.075,2.583,3.762,3.762,0,0,1-.754,3.213,4.713,4.713,0,0,1-2.6,1.691,11.139,11.139,0,0,1-6.7-.26,3.4,3.4,0,0,1-2.5-4.079c.025-.221.116-.242.293-.24C836.371,849.48,836.926,849.476,837.482,849.476Z" transform="translate(3289.964 -1286.195)"/><path class="f" d="M96.84,1002.308c0,1.165,0,2.33,0,3.494a1.907,1.907,0,0,1-1.666,1.987c-1.969.276-3.945.522-5.926.708a2.023,2.023,0,0,1-1.577-.538,1.975,1.975,0,0,1-.622-1.531q-.013-4.137,0-8.273a1.989,1.989,0,0,1,.639-1.575,2.037,2.037,0,0,1,1.633-.523c1.637.146,3.265.373,4.9.569.344.041.69.072,1.027.144a1.95,1.95,0,0,1,1.6,1.944C96.845,999.91,96.84,1001.109,96.84,1002.308Z" transform="translate(3959.006 -1425.772)"/><path class="e" d="M995.39,808.268c0-1.147-.009-2.3.007-3.443,0-.287-.074-.384-.372-.375-.481.015-1.128.166-1.406-.076-.321-.281-.09-.933-.1-1.424-.016-1.065,0-1.065,1.065-1.065.8,0,.8,0,.8-.809,0-1.182.008-2.364-.006-3.545,0-.28.06-.39.368-.384q1.48.028,2.962,0c.325-.007.36.132.358.4-.009,1.3.01,2.6-.013,3.907-.007.367.107.5.463.44a.487.487,0,0,1,.1,0c.548.03,1.3-.232,1.587.1s.086,1.042.089,1.589c.005.883,0,.879-.88.884-.431,0-1-.14-1.254.076-.292.251-.092.833-.094,1.27-.011,1.593,0,3.186,0,4.779,0,1.166.356,1.571,1.522,1.567.524,0,.67.132.639.646a24.892,24.892,0,0,0,0,2.516c.017.4-.121.487-.494.464-.57-.031-1.143-.008-1.715-.008a3.249,3.249,0,0,1-3.348-2.446,7.029,7.029,0,0,1-.279-2.077C995.386,810.255,995.39,809.262,995.39,808.268Z" transform="translate(3148.651 -1247.927)"/><path class="g" d="M97.984,746.963a5.092,5.092,0,0,1-1.586,3.826,4.355,4.355,0,0,1-5.5.307,5.885,5.885,0,0,1-1.9-7.241,4.425,4.425,0,0,1,7.429-.927,5.938,5.938,0,0,1,1.561,4.035Z" transform="translate(3957.75 -1197.839)"/><path class="h" d="M93.339,878.814c-1.272-.158-2.453-.3-3.632-.45q-3.088-.39-6.174-.788c-.237-.03-.613.066-.376-.436,1.628-3.455,3.238-6.919,4.916-10.514Z" transform="translate(3962.551 -1309.946)"/><path class="e" d="M231.523,815.483a6.474,6.474,0,0,0,6.083-3.682,12.717,12.717,0,0,0,.7-10.025,6.439,6.439,0,0,0-6.169-4.673c-3.482-.074-6.969-.017-10.454-.029-.291,0-.344.106-.335.358.017.464-.009.927.009,1.391s-.214,1.1.1,1.371c.268.232.889.066,1.355.077.654.012.865.218.866.865v10.439c0,.516-.2.716-.715.728a8.365,8.365,0,0,1-1.143-.007c-.417-.046-.485.123-.469.487.028.736.031,1.475,0,2.21-.017.393.084.512.5.509C225.073,815.483,228.3,815.519,231.523,815.483Zm-3.582-15.223c1.226.057,2.456-.053,3.683.095a3.178,3.178,0,0,1,2.553,1.783,8.594,8.594,0,0,1,.785,4.595,8.407,8.407,0,0,1-.679,3.141,3.729,3.729,0,0,1-3.67,2.431c-.883-.01-1.768-.029-2.65.011-.427.019-.463-.146-.461-.5.015-1.849.007-3.7.007-5.548s.009-3.7-.007-5.548C227.5,800.387,227.552,800.243,227.941,800.261Z" transform="translate(3839.144 -1247.852)"/><path class="e" d="M228.773,1038.08c-.415-.01-.831,0-1.247,0h-1.247c-.194,0-.458-.074-.4.276.036.222-.177.6.335.547.275-.031.3.142.3.356,0,.822-.008,1.644,0,2.465,0,.248-.052.4-.343.367-.44-.051-.268.281-.3.48-.045.265.06.353.338.348.848-.017,1.7.017,2.545-.013a1.828,1.828,0,0,0,1.7-1.141,3.2,3.2,0,0,0,.15-2.306A1.834,1.834,0,0,0,228.773,1038.08Zm.552,3.584a1.8,1.8,0,0,1-1.664.409c-.137-.079-.09-.208-.092-.319-.005-.427,0-.855,0-1.282,0-.411.015-.822-.005-1.231-.014-.274.085-.357.354-.344.577.026,1.241-.132,1.54.555a2.309,2.309,0,0,1-.133,2.216Z" transform="translate(3835.013 -1463.491)"/><path class="e" d="M622.686,1156.889c-.366-.093-.3-.309-.305-.536-.006-.36,0-.719,0-1.079a1.141,1.141,0,0,0-.684-1.166,1.257,1.257,0,0,0-1.485.222c-.088.087-.129.223-.321.077-.83-.634-1.258-.6-2.021.166-.108-.493-.481-.537-.875-.487-.173.022-.489-.168-.5.155-.006.218-.273.61.246.677.119.015.153.126.153.237v1.438c0,.163-.082.241-.25.265-.315.044-.14.294-.163.449-.017.116-.078.277.09.363a.978.978,0,0,0,.865-.066.957.957,0,0,0,.465-.724c.012-.5,0-.993.017-1.489a.546.546,0,0,1,.169-.448.56.56,0,0,1,.459-.148c.429,0,.568.256.567.634,0,.6.031,1.2-.01,1.8-.03.428.161.473.512.458.31-.014.565.028.525-.434a15.73,15.73,0,0,1-.009-1.694c.011-.515.234-.771.644-.757.487.016.585.344.586.742v1.079c0,.861.26,1.1,1.117,1.056.123-.007.326.061.315-.151S622.961,1156.958,622.686,1156.889Z" transform="translate(3485.773 -1567.157)"/><path class="e" d="M551.107,1040.479c.012-.171,0-.342,0-.514.013-1.635.139-1.683-1.667-1.663-.335,0-.477.039-.483.431-.006.429.208.425.506.4.121-.009.243.008.364,0,.324-.03.346.1.224.356a1.227,1.227,0,0,1-1.025.768,1.346,1.346,0,0,1-1.317-.556,2.321,2.321,0,0,1,.084-2.432,1.331,1.331,0,0,1,1.3-.489c.432.066.867.194.871.768,0,.042.044.116.072.119.325.033.7.132.96-.031.2-.125.067-.469-.042-.7a1.363,1.363,0,0,0-.433-.5,2.653,2.653,0,0,0-1.245-.464,2.438,2.438,0,0,0-2.709,1.35,2.862,2.862,0,0,0,.654,3.3,2.458,2.458,0,0,0,3.1-.179c-.1.475.067.571.452.567C551.233,1040.994,551.091,1040.7,551.107,1040.479Z" transform="translate(3548.456 -1461.562)"/><path class="e" d="M229.656,1146.324c-.151-.03-.28.008-.254.21.048.377-.185.416-.482.406-.364-.013-.727,0-1.091,0-.144,0-.249,0-.287-.2-.176-.932-.023-1.137.9-1.137a3.226,3.226,0,0,1,.364,0c.236.026.268-.085.292-.294.043-.409-.063-.6-.521-.538a5.349,5.349,0,0,1-.779.006c-.126,0-.217-.013-.255-.177-.15-.638.009-.851.67-.851.173,0,.347.007.52,0,.317-.015.6-.018.566.434-.021.3.245.182.38.174.159-.009.389.139.469-.151a.922.922,0,0,0-.119-.911.946.946,0,0,0-.852-.366c-.953-.005-1.905-.007-2.858,0-.185,0-.5-.14-.461.265.023.255-.141.617.385.561.285-.03.254.219.254.4,0,.788,0,1.575,0,2.363,0,.259-.035.442-.361.413-.457-.041-.238.308-.278.5-.048.226.029.34.3.331.536-.021,1.071-.007,1.61-.006s1.071.013,1.61,0a.931.931,0,0,0,.8-.412.909.909,0,0,0,.066-.894C230.133,1146.177,229.857,1146.364,229.656,1146.324Z" transform="translate(3835.031 -1557.24)"/><path class="e" d="M912.8,1146.438c-.163.015-.477-.125-.469.128.024.577-.348.478-.686.48-.295,0-.589-.008-.883,0-.209.007-.3-.047-.315-.281-.083-1.059-.092-1.059.98-1.059a1.884,1.884,0,0,1,.26,0c.258.036.3-.085.319-.32.024-.378-.061-.581-.495-.509-.169.028-.349-.016-.518.009-.42.062-.557-.077-.556-.517s.13-.576.554-.521a3.948,3.948,0,0,0,.727,0c.3-.017.522.039.481.409-.029.257.167.228.309.2.182-.03.435.138.539-.132a.914.914,0,0,0-.078-.892.937.937,0,0,0-.807-.407c-1.022-.012-2.044,0-3.066-.007-.228,0-.384.036-.329.3.042.2-.181.569.3.526.3-.026.335.152.335.388q-.008,1.207,0,2.414c0,.237-.038.413-.335.386-.483-.044-.268.319-.305.524-.063.323.161.3.379.3.5-.005,1,0,1.507,0,.52,0,1.039.006,1.559,0a.949.949,0,0,0,.849-.374.926.926,0,0,0,.114-.912C913.107,1146.344,912.929,1146.427,912.8,1146.438Z" transform="translate(3224.343 -1557.349)"/><path class="e" d="M394.188,1142.492a9.616,9.616,0,0,0-.011-1.258c-.067-.5-.508-.674-1.211-.535-.383.075-.143.383-.194.579-.029.113-.018.244.169.242.249,0,.258.173.258.355v2.774c0,.179,0,.351-.251.366-.3.018-.166.251-.172.39s-.09.321.083.422a1.212,1.212,0,0,0,1.367-.481,1.476,1.476,0,0,0,2.121.084,2.316,2.316,0,0,0,.123-2.888A1.606,1.606,0,0,0,394.188,1142.492Zm.875,2.526c-.536.009-.893-.432-.89-1.1s.331-1.059.866-1.059c.558,0,.852.367.847,1.055s-.321,1.1-.828,1.106Z" transform="translate(3685.781 -1555.219)"/><path class="e" d="M779.447,1040.561c.216.471.339.53,1.1.491.139-.007.363.066.342-.181-.018-.213.164-.536-.142-.621s-.289-.248-.29-.454v-2.622c0-.2-.03-.4.283-.454.189-.03.242-.748.067-.775a1.672,1.672,0,0,0-1.018.047.636.636,0,0,0-.325.651c.005.34,0,.679,0,1.093a1.552,1.552,0,0,0-2.249-.006,2.308,2.308,0,0,0,.074,2.888,1.476,1.476,0,0,0,2.156-.056Zm-1.4-2.278a.852.852,0,0,1,1.132-.006,1.031,1.031,0,0,1,.3.842,1.012,1.012,0,0,1-.425.987.749.749,0,0,1-1.029-.145A1.5,1.5,0,0,1,778.046,1038.283Z" transform="translate(3342.384 -1461.531)"/><path class="e" d="M426.2,1052.391c.211.478.635.459,1.055.434.134-.008.352.08.344-.176-.007-.21.115-.568-.086-.605-.447-.083-.329-.37-.335-.617-.011-.564,0-1.126,0-1.693,0-.457-.506-.778-.819-.459-.252.256-.335.1-.5.02a1.9,1.9,0,0,0-2.308.6,2.166,2.166,0,0,0,.243,2.608A1.764,1.764,0,0,0,426.2,1052.391Zm-1-2.443c.574.006.9.4.9,1.082,0,.706-.349,1.1-.958,1.078-.569-.018-.889-.421-.877-1.107s.35-1.06.931-1.054Z" transform="translate(3658.523 -1473.399)"/><path class="e" d="M1115.674,1156.984c-.5-.1-.354-.43-.362-.706-.015-.547,0-1.1-.009-1.642,0-.156.1-.41-.1-.45-.248-.049-.6-.159-.762.081-.134.209-.181.107-.3.045a2.3,2.3,0,0,0-.374-.171,1.878,1.878,0,0,0-2.153.813,2.149,2.149,0,0,0,.354,2.507,1.787,1.787,0,0,0,2.4-.141c.185.553.653.436,1.071.438.128,0,.311.046.307-.166S1115.866,1157.02,1115.674,1156.984Zm-2.363.056c-.576,0-.906-.385-.915-1.06-.009-.693.335-1.1.931-1.1.574,0,.9.385.908,1.065.009.709-.319,1.1-.921,1.095Z" transform="translate(3043.347 -1567.239)"/><path class="e" d="M347.775,1157.05c-.364-.085-.32-.3-.322-.53,0-.6.005-1.2-.006-1.8,0-.157.1-.406-.1-.458-.236-.062-.6-.142-.737.038-.155.2-.193.16-.367.066a1.881,1.881,0,0,0-2.4.525,2.173,2.173,0,0,0,.224,2.607,1.786,1.786,0,0,0,2.459-.116c.191.576.656.439,1.053.449.125,0,.324.054.31-.157S348.057,1157.116,347.775,1157.05Zm-2.327.073c-.578-.007-.909-.4-.909-1.079,0-.7.358-1.1.964-1.081.568.017.883.417.875,1.109s-.338,1.058-.931,1.052Z" transform="translate(3729.805 -1567.323)"/><path class="e" d="M679.477,1052.444c.268.459.345.489,1.054.452.149-.008.354.039.321-.205-.029-.208.165-.53-.165-.6-.307-.066-.277-.257-.278-.456,0-.616,0-1.232-.006-1.847,0-.16.1-.409-.091-.464-.236-.066-.583-.138-.737.034s-.175.176-.365.074a1.878,1.878,0,0,0-2.4.517,2.175,2.175,0,0,0,.216,2.608A1.779,1.779,0,0,0,679.477,1052.444Zm-1.982-1.375c.011-.671.345-1.055.922-1.059s.923.4.917,1.107c-.007.679-.331,1.053-.915,1.053S677.483,1051.766,677.495,1051.069Z" transform="translate(3432.06 -1473.463)"/><path class="e" d="M383.874,1054.284a.664.664,0,0,0,.489-.344.65.65,0,0,0,.01-.593c-.153-.243-.434-.229-.7-.317.19-.2.437-.166.638-.235a1.354,1.354,0,0,0,1.045-1.085c.022-.153.167-.5-.182-.453-.268.034-.73-.346-.8.276a.583.583,0,0,1-.559.518.636.636,0,0,1-.733-.362,1.622,1.622,0,0,1-.027-1.346.7.7,0,0,1,.744-.446c.335.022.556.162.57.53,0,.058.047.163.076.164a2.193,2.193,0,0,0,.87-.016c.206-.085.074-.4.04-.607a.709.709,0,0,0-.258-.434,2.105,2.105,0,0,0-1.947-.38,1.5,1.5,0,0,0-1.151,1.192,1.906,1.906,0,0,0,1.361,2.583c-.033.158-.244.243-.206.43.028.02.053.053.081.056.214.024.574-.133.523.265-.04.311-.354.242-.594.2a.813.813,0,0,1-.1-.026c-.164-.054-.214.054-.254.175-.05.147.058.165.159.2A1.575,1.575,0,0,0,383.874,1054.284Z" transform="translate(3695.49 -1473.331)"/><path class="e" d="M730.735,1156.928c-.4-.107-.3-.356-.311-.6-.011-.394.007-.789-.008-1.183a1.082,1.082,0,0,0-.87-1.073,1.415,1.415,0,0,0-1.584.53c-.17-.615-.654-.481-1.071-.483-.134,0-.365-.082-.335.175.023.213-.171.538.134.622s.283.249.284.454v1.079c0,.2.026.393-.28.456-.289.06-.1.342-.139.521-.019.1-.048.226.125.287a.936.936,0,0,0,.9-.075.914.914,0,0,0,.41-.795c.012-.463-.018-.927.028-1.387s.374-.632.808-.62.595.279.586.683c-.008.377,0,.754,0,1.131,0,.869.251,1.106,1.114,1.059.12-.007.324.07.315-.146S730.992,1157,730.735,1156.928Z" transform="translate(3387.307 -1567.198)"/><path class="e" d="M1041.266,1154.066a1.925,1.925,0,0,0-1.771,1.188,1.888,1.888,0,0,0,.434,2.072,1.941,1.941,0,0,0,2.1.394,1.9,1.9,0,0,0,1.171-1.772,1.8,1.8,0,0,0-.547-1.365A1.846,1.846,0,0,0,1041.266,1154.066Zm-.025,2.98c-.592,0-.937-.424-.918-1.113s.355-1.05.938-1.047.92.408.912,1.115c-.011.67-.35,1.052-.932,1.048Z" transform="translate(3107.923 -1567.248)"/><path class="e" d="M474.3,1049.109a1.9,1.9,0,1,0,1.985,1.886,1.8,1.8,0,0,0-.56-1.388,1.842,1.842,0,0,0-1.425-.5Zm.041,2.98c-.583,0-.92-.372-.937-1.044-.017-.692.327-1.111.917-1.116s.913.37.929,1.046c.018.7-.315,1.112-.908,1.117Z" transform="translate(3614.566 -1473.381)"/><path class="e" d="M803.283,1154.066a1.9,1.9,0,1,0,1.954,1.916,1.8,1.8,0,0,0-.539-1.395A1.845,1.845,0,0,0,803.283,1154.066Zm0,2.98c-.593,0-.941-.418-.924-1.108s.351-1.054.931-1.052.923.4.917,1.109c-.009.675-.346,1.055-.926,1.053Z" transform="translate(3320.4 -1567.248)"/><path class="e" d="M829.2,1051a1.933,1.933,0,0,0-1.168-1.817,1.973,1.973,0,0,0-2.144.378,1.919,1.919,0,0,0-.462,2.1,1.956,1.956,0,0,0,1.793,1.223,1.84,1.84,0,0,0,1.424-.5A1.8,1.8,0,0,0,829.2,1051Zm-1.927,1.064c-.6.013-.958-.389-.957-1.079,0-.668.335-1.069.9-1.081.6-.012.943.376.947,1.08.006.676-.321,1.069-.894,1.081Z" transform="translate(3298.971 -1473.355)"/><path class="e" d="M603.149,1052.81a1.709,1.709,0,0,0,1.925-1.126c-.469.029-.887-.1-1.282.287-.353.345-1,.076-1.187-.4-.1-.272-.116-.436.279-.417.639.03,1.28.011,1.921.007.142,0,.295.052.335-.2a1.774,1.774,0,0,0-1.253-1.893c-1.555-.38-2.575.636-2.318,2.31A1.607,1.607,0,0,0,603.149,1052.81Zm.019-2.97a.746.746,0,0,1,.836.364c.11.188.157.355-.174.348-.409-.01-.819,0-1.24,0a.655.655,0,0,1,.578-.712Z" transform="translate(3499.07 -1473.279)"/><path class="e" d="M340.671,1052.781a1.828,1.828,0,0,0,1.391-.036,1.8,1.8,0,0,0,.953-1c-.469.018-.88-.1-1.278.277s-1.071.054-1.227-.479c-.074-.248-.027-.331.248-.326.658.016,1.316-.008,1.973.011.281.009.344-.09.342-.351a1.684,1.684,0,0,0-.435-1.254,1.989,1.989,0,0,0-2.555-.194,1.669,1.669,0,0,0-.611,1.235A1.774,1.774,0,0,0,340.671,1052.781Zm.131-2.765a.78.78,0,0,1,.737-.088c.258.093.5.272.459.546l-1.461.011a.508.508,0,0,1,.266-.469Z" transform="translate(3733.432 -1473.334)"/><path class="e" d="M1194.8,1154.028c-1.555-.381-2.575.634-2.32,2.308a1.607,1.607,0,0,0,1.58,1.429,1.707,1.707,0,0,0,1.92-1.106,1.445,1.445,0,0,0-1.256.282.844.844,0,0,1-.7.071.832.832,0,0,1-.507-.481c-.1-.268-.122-.438.277-.418.639.031,1.28.01,1.921.006.141,0,.3.054.335-.2A1.775,1.775,0,0,0,1194.8,1154.028Zm.169,1.324c-.035.331-.362.081-.545.148a.624.624,0,0,1-.2,0,1.241,1.241,0,0,1-.257,0c-.153-.033-.393.118-.446-.1a.513.513,0,0,1,.285-.505.765.765,0,0,1,.644-.1c.277.072.557.246.525.545Z" transform="translate(2970.711 -1567.143)"/><path class="e" d="M686.637,1154.041a1.841,1.841,0,0,0-1.875.444,2.1,2.1,0,0,0-.358,2.172,1.864,1.864,0,0,0,3.415.013,1.507,1.507,0,0,0-1.259.291.845.845,0,0,1-.723.051.832.832,0,0,1-.492-.526c-.082-.252-.06-.368.257-.358.657.021,1.315.007,1.973.005.148,0,.291.039.323-.208a1.762,1.762,0,0,0-1.263-1.884Zm.181,1.332c-.042.317-.367.076-.554.14a.667.667,0,0,1-.206,0,1.168,1.168,0,0,1-.257,0c-.151-.035-.393.124-.44-.1a.524.524,0,0,1,.295-.5.769.769,0,0,1,.646-.089C686.578,1154.9,686.859,1155.076,686.819,1155.373Z" transform="translate(3425.084 -1567.156)"/><path class="e" d="M511.917,1154.124a1.932,1.932,0,0,0-2.153.585,2.365,2.365,0,0,0,.062,2.521,1.875,1.875,0,0,0,1.839.574,1.489,1.489,0,0,0,1.327-1.1c-.384.044-.775-.162-1.063.124a.832.832,0,0,1-.984.209.8.8,0,0,1-.483-.852h1.1c.381,0,.762.006,1.142,0,.134,0,.3.072.349-.178a1.819,1.819,0,0,0-1.134-1.881Zm.058,1.307c-.044.291-.338.077-.511.132a.675.675,0,0,1-.206,0,1.491,1.491,0,0,1-.309,0c-.151-.033-.387.126-.437-.107a.5.5,0,0,1,.258-.472.785.785,0,0,1,.784-.077C511.792,1155.009,512.012,1155.181,511.975,1155.431Z" transform="translate(3581.429 -1567.208)"/><path class="e" d="M441.972,1154.023c-1.553-.418-2.612.574-2.384,2.238a1.6,1.6,0,0,0,1.531,1.479,1.736,1.736,0,0,0,1.98-1.1,1.409,1.409,0,0,0-1.254.276.849.849,0,0,1-.746.055.835.835,0,0,1-.5-.555c-.074-.253-.016-.331.251-.323.658.015,1.316.007,1.973,0,.139,0,.3.06.34-.189a1.787,1.787,0,0,0-1.2-1.885Zm.117,1.336c-.046.265-.344.074-.522.124a.8.8,0,0,1-.206,0,1.132,1.132,0,0,1-.257,0c-.162-.039-.428.123-.469-.121a.525.525,0,0,1,.352-.518.794.794,0,0,1,.649-.032c.254.1.5.28.452.552Z" transform="translate(3643.913 -1567.125)"/><path class="e" d="M1236.4,1155.6c-.335-.073-.678-.132-1.011-.219-.208-.056-.357-.213-.209-.421s.425-.194.67-.185c.218.008.469.054.5.283.039.287.15.388.422.331.2-.042.5.136.6-.123a.723.723,0,0,0-.179-.719,1.283,1.283,0,0,0-.362-.283,2.4,2.4,0,0,0-1.108-.21c-.086,0-.174-.006-.26,0a1.275,1.275,0,0,0-1.314,1.14c-.04.547.307.891,1.1,1.08.335.081.673.151,1,.236.2.05.319.182.208.379-.163.287-.465.265-.741.246-.23-.017-.522.022-.587-.291-.036-.173,0-.365-.268-.319s-.63-.161-.807.121a.635.635,0,0,0,.134.673,1.094,1.094,0,0,0,.5.35,3.094,3.094,0,0,0,1.681.132c.749-.154,1.161-.574,1.151-1.177C1237.511,1156.107,1237.13,1155.757,1236.4,1155.6Z" transform="translate(2933.477 -1567.235)"/><path class="e" d="M278.482,1155.588c-.335-.073-.678-.132-1.011-.221-.208-.057-.351-.217-.2-.423s.429-.188.67-.179c.219.009.458.058.494.289.039.249.106.373.374.327.214-.037.519.115.629-.087a.722.722,0,0,0-.139-.724,1.024,1.024,0,0,0-.536-.385,2.708,2.708,0,0,0-.969-.141c-.927,0-1.479.391-1.559,1.1-.067.623.335.981,1.3,1.166.268.052.536.122.8.195.2.054.314.19.2.383-.184.3-.508.259-.8.236-.21-.016-.49.008-.528-.295-.023-.186-.019-.347-.275-.315s-.611-.124-.789.087c-.134.161-.044.47.1.676a1.036,1.036,0,0,0,.536.387,3.111,3.111,0,0,0,1.681.128c.723-.15,1.126-.548,1.143-1.133C279.625,1156.119,279.238,1155.752,278.482,1155.588Z" transform="translate(3790.098 -1567.226)"/><path class="e" d="M872.841,1050.746c-.423-.142-.87-.2-1.306-.316-.24-.062-.449-.189-.254-.464a.85.85,0,0,1,1.171.155.749.749,0,0,0,.895.286c.284-.171.1-.438.03-.637a.935.935,0,0,0-.7-.564,2.583,2.583,0,0,0-.87-.117c-.067,0-.139,0-.208,0a1.288,1.288,0,0,0-1.381,1.125c-.05.565.309.918,1.129,1.107.319.073.64.142.958.22.194.048.335.166.231.37-.134.273-.415.278-.68.265s-.584.039-.645-.278c-.048-.25-.093-.383-.366-.336-.244.042-.585-.141-.714.107a.664.664,0,0,0,.185.754c.025.024.048.049.074.072a2.665,2.665,0,0,0,2.828,0,1.17,1.17,0,0,0,.272-.369.944.944,0,0,0,.021-.851.962.962,0,0,0-.674-.528Z" transform="translate(3258.91 -1473.359)"/><path class="e" d="M848.8,1155.663c-.34-.117-.708-.151-1.051-.26-.248-.079-.705-.021-.611-.444.078-.347.475-.265.761-.252a.426.426,0,0,1,.316.1.416.416,0,0,1,.146.294c.007.079-.019.2.094.2.291.007.67.137.848-.056s.037-.549-.15-.791a.991.991,0,0,0-.51-.34,2.918,2.918,0,0,0-1.433-.1,1.186,1.186,0,0,0-1.1,1.172c0,.492.316.8,1.025.984.35.091.705.164,1.057.25.19.046.344.156.252.362-.125.279-.4.3-.67.274s-.574.06-.681-.309a.773.773,0,0,0-.95-.291c-.317.148-.113.422-.067.624a.775.775,0,0,0,.508.481,3.112,3.112,0,0,0,1.156.223,2.4,2.4,0,0,0,1.158-.248,1.067,1.067,0,0,0,.593-1.011A.9.9,0,0,0,848.8,1155.663Z" transform="translate(3280.469 -1567.161)"/><path class="e" d="M960.366,1155.587c-.335-.073-.678-.132-1.01-.222-.208-.058-.348-.219-.193-.424s.43-.186.674-.177c.219.009.459.06.492.291.036.254.112.368.376.325.214-.035.519.112.627-.089a.722.722,0,0,0-.14-.724,1.027,1.027,0,0,0-.539-.385,2.706,2.706,0,0,0-.969-.14c-.925,0-1.479.393-1.557,1.1-.067.623.335.979,1.3,1.165.268.052.536.124.8.194.174.046.291.164.216.34a.544.544,0,0,1-.613.283c-.275-.022-.623.085-.737-.3-.041-.14.023-.331-.224-.31-.286.026-.632-.124-.842.087-.134.136-.038.437.072.632a.95.95,0,0,0,.516.411,3.1,3.1,0,0,0,1.73.144c.722-.149,1.126-.55,1.138-1.135C961.51,1156.116,961.124,1155.75,960.366,1155.587Z" transform="translate(3180.319 -1567.226)"/><path class="e" d="M1001.329,1155.433c.67,0,.8-.2.556-.761a1.219,1.219,0,0,0-.813-.662c-1.592-.51-2.727.432-2.577,2.133a1.5,1.5,0,0,0,1.043,1.446,1.98,1.98,0,0,0,2.07-.411.963.963,0,0,0,.335-.675c0-.164.149-.5-.212-.432-.268.048-.737-.336-.8.277a.545.545,0,0,1-.447.5.683.683,0,0,1-.755-.2,1.59,1.59,0,0,1,.02-1.692.759.759,0,0,1,.757-.222c.191.039.409.142.393.349C1000.871,1155.5,1001.139,1155.441,1001.329,1155.433Z" transform="translate(3144.09 -1567.073)"/><path class="e" d="M554.111,1155.323c.307,0,.688.132.9-.062.167-.157.078-.516-.063-.768a1.238,1.238,0,0,0-.666-.541,1.847,1.847,0,0,0-1.887.08,1.8,1.8,0,0,0-.81,1.687,1.621,1.621,0,0,0,1.386,1.859,1.68,1.68,0,0,0,2.076-1.213c.011-.148.125-.459-.2-.4-.274.052-.733-.317-.81.265a.576.576,0,0,1-.536.53.645.645,0,0,1-.767-.382,1.687,1.687,0,0,1-.06-1.2.718.718,0,0,1,.765-.563c.358.014.6.148.584.553C554.017,1155.239,554.029,1155.323,554.111,1155.323Z" transform="translate(3543.734 -1566.974)"/><path class="e" d="M317.6,1146.842c-.388-.072-.421-.28-.417-.575,0-.324.011-.65,0-.974-.011-.27,0-.486.372-.425.23.038.268-.111.237-.281-.026-.148.11-.434-.134-.417-.7.049-.461-.445-.46-.752,0-.375-.056-.605-.5-.491-.41-.1-.581.053-.519.47a3.783,3.783,0,0,1,0,.512c0,.133-.023.255-.189.236-.29-.034-.345.1-.335.356.007.227,0,.406.319.373.249-.026.2.176.206.321,0,.464-.007.923,0,1.384.02.89.4,1.225,1.3,1.172.163-.01.35,0,.289-.228S318,1146.916,317.6,1146.842Z" transform="translate(3754.711 -1557.229)"/><path class="e" d="M776.417,1146.383c-.206-.013-.268-.191-.273-.377,0-.427,0-.854,0-1.281,0-.182.04-.311.255-.279.312.046.366-.1.364-.377,0-.258-.06-.389-.344-.346-.246.037-.285-.11-.277-.31.01-.222,0-.444,0-.666,0-.1.015-.2-.114-.252a.6.6,0,0,0-.621.014.584.584,0,0,0-.267.554c0,.137-.005.273,0,.41.007.164-.046.273-.231.25-.288-.038-.3.133-.293.342s-.025.425.305.383c.2-.025.222.107.219.261,0,.273,0,.547,0,.821h0c0,.239-.009.479,0,.718.035.767.368,1.089,1.134,1.071.162,0,.5.154.447-.206C776.687,1146.864,777.022,1146.42,776.417,1146.383Z" transform="translate(3344.274 -1556.804)"/><path class="e" d="M726.313,1039.429v2.519a.975.975,0,0,0,.111.545,1.455,1.455,0,0,0,1.493.41c.231-.159.062-.445.1-.671.021-.129-.013-.256-.185-.232-.532.076-.546-.254-.532-.632.014-.393,0-.789,0-1.182,0-.48.009-.96,0-1.44a.61.61,0,0,0-.175-.471.624.624,0,0,0-.472-.184c-.19-.012-.382,0-.572,0-.141,0-.309-.014-.268.2s-.156.561.146.6C726.36,1038.945,726.313,1039.175,726.313,1039.429Z" transform="translate(3387.944 -1463.5)"/><path class="e" d="M482.768,1146.8c-.381.024-.42-.2-.418-.487.006-.771,0-1.543,0-2.314,0-1.006-.22-1.2-1.233-1.114-.146.013-.3,0-.264.207s-.123.564.105.585c.522.047.393.378.4.662.011.377,0,.754,0,1.131v.977c0,1.082.254,1.309,1.36,1.281.268-.007.408-.079.34-.344C483.009,1147.174,483.292,1146.768,482.768,1146.8Z" transform="translate(3606.993 -1557.202)"/><path class="e" d="M1085.964,1147.132c.029-.171-.054-.261-.236-.237-.475.066-.486-.236-.483-.575.009-.857,0-1.714.006-2.571a.652.652,0,0,0-.5-.741,3.987,3.987,0,0,0-.829-.021c-.227,0-.193.177-.167.293.038.176-.157.486.14.509.412.033.365.276.365.53v2.571a1.094,1.094,0,0,0,.554.879,1.118,1.118,0,0,0,1.047.029C1086.1,1147.659,1085.926,1147.358,1085.964,1147.132Z" transform="translate(3068.112 -1557.299)"/><path class="e" d="M643.1,1049.987c.313.075.273.258.274.452.005.685.007,1.371,0,2.057,0,.473.353.26.56.28.189.019.475.125.453-.274-.023-.444-.006-.891-.005-1.336,0-.891.11-1.008,1-1.16.443-.075.17-.432.228-.655.063-.242-.106-.283-.307-.265a1.21,1.21,0,0,0-.9.591c-.228-.515-.664-.512-1.106-.485-.138.009-.363-.066-.339.182C642.972,1049.583,642.789,1049.913,643.1,1049.987Z" transform="translate(3462.052 -1473.357)"/><path class="e" d="M307.266,1052.25c-.029-.5-.012-.993-.005-1.491.01-.687.223-.908.919-.975.111-.01.282.048.3-.12.019-.252.121-.566-.046-.746s-.461-.044-.67.066a1.133,1.133,0,0,0-.345.3c-.1.132-.156.154-.247-.006a.74.74,0,0,0-.815-.314c-.178.021-.487-.146-.506.157-.014.221-.258.609.258.677.183.025.145.21.147.338.007.342,0,.685,0,1.028,0,.36.015.72,0,1.079-.025.469.323.293.536.306S307.288,1052.674,307.266,1052.25Z" transform="translate(3763.548 -1473.134)"/><path class="e" d="M1163.529,1154.3c.063-.242-.106-.283-.307-.265a1.209,1.209,0,0,0-.9.591c-.228-.515-.664-.512-1.106-.485-.139.009-.363-.066-.339.182.02.213-.163.544.145.617s.273.258.275.452c.005.685.007,1.371,0,2.057,0,.473.353.26.561.28.189.019.475.125.453-.274-.023-.444-.006-.891-.005-1.336,0-.891.11-1.008,1-1.16C1163.743,1154.884,1163.47,1154.527,1163.529,1154.3Z" transform="translate(2999.024 -1567.22)"/><path class="e" d="M592.336,1157.593c-.439-.142-.317-.428-.328-.691-.016-.358,0-.717,0-1.076,0-.845-.108-.961-.944-.944-.163,0-.459-.12-.469.127-.007.231-.285.64.26.711.157.021.134.179.134.295,0,.273,0,.546,0,.82v.615c0,.807.242,1.047,1.043,1.02.134,0,.364.1.382-.127C592.434,1158.087,592.565,1157.665,592.336,1157.593Z" transform="translate(3508.905 -1567.955)"/><path class="e" d="M281.211,1052.876c.031.568.447.817,1.174.734.518-.058.17-.452.253-.678a.169.169,0,0,0-.006-.172.173.173,0,0,0-.155-.079c-.268-.023-.259-.227-.258-.42v-1.179c0-1-.134-1.13-1.132-1.069-.123.007-.323-.057-.3.164s-.163.568.114.628c.383.085.295.315.3.53C281.211,1051.854,281.185,1052.365,281.211,1052.876Z" transform="translate(3785.922 -1474.183)"/><path class="e" d="M519.123,1063.027h1.136c.112,0,.224.026.275-.145.153-.518-.027-.778-.569-.779h-1.138c-.126,0-.26-.044-.3.171C518.405,1062.852,518.53,1063.027,519.123,1063.027Z" transform="translate(3573.323 -1485.045)"/><path class="e" d="M431.708,1035.989a2.519,2.519,0,0,0,.952.195c.472-.036.65-.354.78-.907-.633.507-1.215.271-1.808.2-.429-.052-.693.223-.826.648C431.183,1036.351,431.387,1035.888,431.708,1035.989Z" transform="translate(3651.73 -1461.027)"/><path class="e" d="M592.757,1141.239c.361-.031.621-.194.633-.554a.6.6,0,0,0-1.209-.036C592.166,1141.012,592.418,1141.187,592.757,1141.239Z" transform="translate(3507.411 -1554.892)"/><path class="e" d="M282.844,1036.312c.315-.05.588-.2.593-.566a.607.607,0,0,0-1.21-.023C282.216,1036.086,282.469,1036.26,282.844,1036.312Z" transform="translate(3784.599 -1460.934)"/></g></svg>