<svg xmlns="http://www.w3.org/2000/svg" width="28" height="28" viewBox="0 0 28 28"><defs><style>.a,.b{fill:#c5c6c6;}.a{opacity:0;}</style></defs><g transform="translate(3.887 3.887)"><rect class="a" width="28" height="28" transform="translate(-3.887 -3.887)"/><g transform="translate(-2.34 -2.34)"><path class="b" d="M12.453,0A12.452,12.452,0,1,0,24.905,12.453,12.466,12.466,0,0,0,12.453,0Zm-3.4,10.085.025-.027a.318.318,0,0,0,.133-.31,4.983,4.983,0,0,1-.031-2.3A3.736,3.736,0,0,1,11.26,5.374a1.4,1.4,0,0,1,.272-.071l.032-.007.221-.012,0,.014.051,0a1.376,1.376,0,0,0,.144-.022l.049-.01a7.761,7.761,0,0,1,1.374.312l.553.19a3.066,3.066,0,0,1,1.563.966,3.378,3.378,0,0,1,.392,3.047.312.312,0,0,0,.041.253l.046.056c.059.08.111.387-.065,1.04a.852.852,0,0,1-.215.468.317.317,0,0,0-.079.164c-.274,1.6-1.711,3.4-3.227,3.4-1.286,0-2.754-1.651-3.018-3.4a.322.322,0,0,0-.082-.172.956.956,0,0,1-.222-.521A1.447,1.447,0,0,1,9.049,10.085ZM6.162,17.043a2.367,2.367,0,0,1,1-.675A10.721,10.721,0,0,0,9.824,15.2a.473.473,0,0,0,.1-.085c.069-.074.175-.188.3-.3l.07-.066.071.067a3.113,3.113,0,0,0,2.051.96A3.236,3.236,0,0,0,14.5,14.9l.052-.045.141.068a2.519,2.519,0,0,0,.446.322l.13.063-.014.014.058.035c.123.074.256.146.413.223s.291.121.428.166a14.127,14.127,0,0,1,1.43.567l.133.04a2.447,2.447,0,0,1,1.018.664,11.614,11.614,0,0,1,1.239,4.7,11.91,11.91,0,0,1-15.03,0A11.577,11.577,0,0,1,6.162,17.043Z"/></g></g></svg>